<svg width="678" height="59" viewBox="0 0 678 59" fill="none" xmlns="http://www.w3.org/2000/svg">
<path d="M42.5845 44.7001V28.8001H9.10447V44.7001H5.44447V9.30006H9.10447V25.2001H42.5845V9.30006H46.3045V44.7001H42.5845ZM49.6645 48.0601V5.94006H39.2245V21.9001H12.4645V5.94006H2.08447V48.0601H12.4645V32.1001H39.2245V48.0601H49.6645ZM19.7845 20.4001H37.7245V4.44006H51.1645L56.9845 10.6201V55.3801H43.9045L37.7245 49.5601V39.4201H19.7845V55.3801H6.76447L0.584473 49.5601V4.44006H13.9645L19.7845 10.6201V20.4001Z" fill="#0D1615"/>
<path d="M97.3392 41.0401C99.6592 41.0401 101.819 40.8001 103.819 40.3201C105.859 39.8001 107.619 39.0001 109.099 37.9201C110.619 36.8001 111.799 35.3601 112.639 33.6001C113.479 31.8001 113.899 29.6001 113.899 27.0001C113.899 24.4401 113.459 22.2601 112.579 20.4601C111.739 18.6601 110.579 17.2201 109.099 16.1401C107.619 15.0201 105.859 14.2201 103.819 13.7401C101.819 13.2201 99.6592 12.9601 97.3392 12.9601H90.7392C88.3792 12.9601 86.1792 13.2201 84.1392 13.7401C82.1392 14.2201 80.3992 15.0201 78.9192 16.1401C77.4392 17.2201 76.2592 18.6601 75.3792 20.4601C74.5392 22.2601 74.1192 24.4401 74.1192 27.0001C74.1192 29.6001 74.5392 31.8001 75.3792 33.6001C76.2592 35.3601 77.4392 36.8001 78.9192 37.9201C80.3992 39.0401 82.1392 39.8401 84.1392 40.3201C86.1792 40.8001 88.3792 41.0401 90.7392 41.0401H97.3392ZM90.7392 37.6801C88.9392 37.6801 87.2392 37.5001 85.6392 37.1401C84.0392 36.7801 82.6392 36.2001 81.4392 35.4001C80.2392 34.5601 79.2792 33.4601 78.5592 32.1001C77.8392 30.7401 77.4792 29.0401 77.4792 27.0001C77.4792 25.0001 77.8392 23.3201 78.5592 21.9601C79.2792 20.6001 80.2392 19.5001 81.4392 18.6601C82.6792 17.8201 84.0992 17.2201 85.6992 16.8601C87.2992 16.5001 88.9792 16.3201 90.7392 16.3201H97.3392C99.0992 16.3201 100.779 16.5001 102.379 16.8601C103.979 17.2201 105.379 17.8201 106.579 18.6601C107.779 19.5001 108.739 20.6001 109.459 21.9601C110.179 23.3201 110.539 25.0001 110.539 27.0001C110.539 29.0001 110.179 30.6801 109.459 32.0401C108.779 33.4001 107.839 34.5001 106.639 35.3401C105.439 36.1801 104.039 36.7801 102.439 37.1401C100.839 37.5001 99.1392 37.6801 97.3392 37.6801H90.7392ZM70.3392 27.0001C70.3392 23.7601 70.8392 21.0201 71.8392 18.7801C72.8792 16.5401 74.2992 14.7201 76.0992 13.3201C77.9392 11.8801 80.0992 10.8601 82.5792 10.2601C85.0992 9.62006 87.8192 9.30006 90.7392 9.30006H97.3392C100.259 9.30006 102.959 9.62006 105.439 10.2601C107.919 10.9001 110.059 11.9201 111.859 13.3201C113.699 14.7201 115.119 16.5401 116.119 18.7801C117.159 21.0201 117.679 23.7601 117.679 27.0001C117.679 30.2401 117.159 32.9801 116.119 35.2201C115.119 37.4601 113.699 39.2801 111.859 40.6801C110.059 42.0801 107.919 43.1001 105.439 43.7401C102.959 44.3801 100.259 44.7001 97.3392 44.7001H90.7392C87.8192 44.7001 85.0992 44.4001 82.5792 43.8001C80.0992 43.1601 77.9392 42.1401 76.0992 40.7401C74.2992 39.3001 72.8792 37.4601 71.8392 35.2201C70.8392 32.9801 70.3392 30.2401 70.3392 27.0001ZM66.9792 27.0001C66.9792 30.8001 67.5592 34.0401 68.7192 36.7201C69.9192 39.3601 71.5592 41.5201 73.6392 43.2001C75.7592 44.8801 78.2592 46.1201 81.1392 46.9201C84.0592 47.6801 87.2592 48.0601 90.7392 48.0601H97.3392C100.819 48.0601 103.999 47.6801 106.879 46.9201C109.759 46.1201 112.239 44.8801 114.319 43.2001C116.439 41.5201 118.079 39.3601 119.239 36.7201C120.399 34.0401 120.979 30.8001 120.979 27.0001C120.979 23.2001 120.399 19.9801 119.239 17.3401C118.079 14.6601 116.439 12.4801 114.319 10.8001C112.239 9.12006 109.759 7.90006 106.879 7.14006C103.999 6.34006 100.819 5.94006 97.3392 5.94006H90.7392C87.2592 5.94006 84.0592 6.34006 81.1392 7.14006C78.2592 7.90006 75.7592 9.12006 73.6392 10.8001C71.5592 12.4801 69.9192 14.6601 68.7192 17.3401C67.5592 19.9801 66.9792 23.2001 66.9792 27.0001ZM65.4792 27.0001C65.4792 22.9201 66.0992 19.4601 67.3392 16.6201C68.5792 13.7401 70.3192 11.4001 72.5592 9.60006C74.7992 7.80006 77.4592 6.50006 80.5392 5.70006C83.6592 4.86006 87.0592 4.44006 90.7392 4.44006H97.3392C99.6592 4.44006 101.839 4.58006 103.879 4.86006C105.959 5.10006 107.999 5.64006 109.999 6.48006C111.999 7.28006 113.979 8.44006 115.939 9.96006C117.939 11.4401 119.999 13.4401 122.119 15.9601C123.919 17.7601 125.399 20.1401 126.559 23.1001C127.719 26.0601 128.299 29.3601 128.299 33.0001C128.299 37.0401 127.679 40.4801 126.439 43.3201C125.239 46.1601 123.519 48.4601 121.279 50.2201C119.079 52.0201 116.439 53.3201 113.359 54.1201C110.319 54.9601 106.979 55.3801 103.339 55.3801H96.7392C92.6592 55.3801 88.8592 54.9201 85.3392 54.0001C81.8192 53.0801 78.9192 51.5001 76.6392 49.2601C74.3592 47.2601 72.4992 45.3801 71.0592 43.6201C69.6192 41.8201 68.4792 40.0401 67.6392 38.2801C66.8392 36.5201 66.2792 34.7201 65.9592 32.8801C65.6392 31.0401 65.4792 29.0801 65.4792 27.0001ZM97.3392 36.1801C98.8992 36.1801 100.379 36.0401 101.779 35.7601C103.219 35.4401 104.479 34.9201 105.559 34.2001C106.639 33.4801 107.479 32.5401 108.079 31.3801C108.719 30.1801 109.039 28.7201 109.039 27.0001C109.039 26.0401 108.919 25.1601 108.679 24.3601C107.039 23.8801 105.259 23.6401 103.339 23.6401H96.7392C95.1392 23.6401 93.6192 23.8001 92.1792 24.1201C90.7392 24.4401 89.4592 24.9601 88.3392 25.6801C87.2592 26.4001 86.3992 27.3601 85.7592 28.5601C85.1192 29.7601 84.7992 31.2401 84.7992 33.0001C84.7992 33.9601 84.8792 34.7601 85.0392 35.4001C85.8792 35.6801 86.7792 35.8801 87.7392 36.0001C88.6992 36.1201 89.6992 36.1801 90.7392 36.1801H97.3392Z" fill="#0D1615"/>
<path d="M147.969 38.5801C149.969 33.6201 152.029 28.7401 154.149 23.9401C156.269 19.1001 158.349 14.2201 160.389 9.30006H163.329L175.749 38.5201C177.789 33.6401 179.829 28.7801 181.869 23.9401C183.909 19.1001 185.929 14.2201 187.929 9.30006H192.129C189.689 15.2601 187.249 21.1601 184.809 27.0001C182.369 32.8401 179.929 38.7401 177.489 44.7001H174.429L161.889 15.4201L149.229 44.7001H146.289C143.889 38.7401 141.469 32.8401 139.029 27.0001C136.589 21.1201 134.129 15.2201 131.649 9.30006H135.849L147.969 38.5801ZM144.129 48.0601H151.569C153.249 43.9801 154.929 39.9601 156.609 36.0001C158.329 32.0001 160.069 27.9801 161.829 23.9401L172.149 48.0601H179.649L197.049 5.94006H185.709C184.069 9.94006 182.409 13.9201 180.729 17.8801C179.089 21.8001 177.429 25.7601 175.749 29.7601L165.549 5.94006H158.229L147.969 29.8801L138.009 5.94006H126.729L144.129 48.0601ZM138.969 4.44006L144.849 10.6201L149.589 22.1401C150.869 19.1801 152.149 16.2401 153.429 13.3201C154.709 10.4001 155.989 7.44006 157.269 4.44006H166.569L172.449 10.6201L177.309 22.1401L178.029 20.4601C178.269 19.9001 178.529 19.3001 178.809 18.6601C179.129 17.9801 179.389 17.3601 179.589 16.8001C180.469 14.7601 181.349 12.6801 182.229 10.5601C183.109 8.40006 183.949 6.36006 184.749 4.44006H199.269L204.969 10.6201L186.489 55.3801H177.249L171.129 49.5601L165.969 37.5601C164.689 40.5601 163.409 43.5601 162.129 46.5601C160.849 49.5201 159.609 52.4601 158.409 55.3801H149.289L143.169 49.5601L124.509 4.44006H138.969Z" fill="#0D1615"/>
<path d="M271.925 44.7001V12.9601H251.825V9.30006H295.685V12.9601H275.525V44.7001H271.925ZM278.825 48.0601V16.3201H298.985V5.94006H248.525V16.3201H268.625V48.0601H278.825ZM247.025 17.8201V4.44006H300.485L306.305 10.6201V23.6401H286.145V55.3801H273.305L267.125 49.5601V23.6401H253.205L247.025 17.8201Z" fill="#0D1615"/>
<path d="M341.195 41.0401C343.515 41.0401 345.675 40.8001 347.675 40.3201C349.715 39.8001 351.475 39.0001 352.955 37.9201C354.475 36.8001 355.655 35.3601 356.495 33.6001C357.335 31.8001 357.755 29.6001 357.755 27.0001C357.755 24.4401 357.315 22.2601 356.435 20.4601C355.595 18.6601 354.435 17.2201 352.955 16.1401C351.475 15.0201 349.715 14.2201 347.675 13.7401C345.675 13.2201 343.515 12.9601 341.195 12.9601H334.595C332.235 12.9601 330.035 13.2201 327.995 13.7401C325.995 14.2201 324.255 15.0201 322.775 16.1401C321.295 17.2201 320.115 18.6601 319.235 20.4601C318.395 22.2601 317.975 24.4401 317.975 27.0001C317.975 29.6001 318.395 31.8001 319.235 33.6001C320.115 35.3601 321.295 36.8001 322.775 37.9201C324.255 39.0401 325.995 39.8401 327.995 40.3201C330.035 40.8001 332.235 41.0401 334.595 41.0401H341.195ZM334.595 37.6801C332.795 37.6801 331.095 37.5001 329.495 37.1401C327.895 36.7801 326.495 36.2001 325.295 35.4001C324.095 34.5601 323.135 33.4601 322.415 32.1001C321.695 30.7401 321.335 29.0401 321.335 27.0001C321.335 25.0001 321.695 23.3201 322.415 21.9601C323.135 20.6001 324.095 19.5001 325.295 18.6601C326.535 17.8201 327.955 17.2201 329.555 16.8601C331.155 16.5001 332.835 16.3201 334.595 16.3201H341.195C342.955 16.3201 344.635 16.5001 346.235 16.8601C347.835 17.2201 349.235 17.8201 350.435 18.6601C351.635 19.5001 352.595 20.6001 353.315 21.9601C354.035 23.3201 354.395 25.0001 354.395 27.0001C354.395 29.0001 354.035 30.6801 353.315 32.0401C352.635 33.4001 351.695 34.5001 350.495 35.3401C349.295 36.1801 347.895 36.7801 346.295 37.1401C344.695 37.5001 342.995 37.6801 341.195 37.6801H334.595ZM314.195 27.0001C314.195 23.7601 314.695 21.0201 315.695 18.7801C316.735 16.5401 318.155 14.7201 319.955 13.3201C321.795 11.8801 323.955 10.8601 326.435 10.2601C328.955 9.62006 331.675 9.30006 334.595 9.30006H341.195C344.115 9.30006 346.815 9.62006 349.295 10.2601C351.775 10.9001 353.915 11.9201 355.715 13.3201C357.555 14.7201 358.975 16.5401 359.975 18.7801C361.015 21.0201 361.535 23.7601 361.535 27.0001C361.535 30.2401 361.015 32.9801 359.975 35.2201C358.975 37.4601 357.555 39.2801 355.715 40.6801C353.915 42.0801 351.775 43.1001 349.295 43.7401C346.815 44.3801 344.115 44.7001 341.195 44.7001H334.595C331.675 44.7001 328.955 44.4001 326.435 43.8001C323.955 43.1601 321.795 42.1401 319.955 40.7401C318.155 39.3001 316.735 37.4601 315.695 35.2201C314.695 32.9801 314.195 30.2401 314.195 27.0001ZM310.835 27.0001C310.835 30.8001 311.415 34.0401 312.575 36.7201C313.775 39.3601 315.415 41.5201 317.495 43.2001C319.615 44.8801 322.115 46.1201 324.995 46.9201C327.915 47.6801 331.115 48.0601 334.595 48.0601H341.195C344.675 48.0601 347.855 47.6801 350.735 46.9201C353.615 46.1201 356.095 44.8801 358.175 43.2001C360.295 41.5201 361.935 39.3601 363.095 36.7201C364.255 34.0401 364.835 30.8001 364.835 27.0001C364.835 23.2001 364.255 19.9801 363.095 17.3401C361.935 14.6601 360.295 12.4801 358.175 10.8001C356.095 9.12006 353.615 7.90006 350.735 7.14006C347.855 6.34006 344.675 5.94006 341.195 5.94006H334.595C331.115 5.94006 327.915 6.34006 324.995 7.14006C322.115 7.90006 319.615 9.12006 317.495 10.8001C315.415 12.4801 313.775 14.6601 312.575 17.3401C311.415 19.9801 310.835 23.2001 310.835 27.0001ZM309.335 27.0001C309.335 22.9201 309.955 19.4601 311.195 16.6201C312.435 13.7401 314.175 11.4001 316.415 9.60006C318.655 7.80006 321.315 6.50006 324.395 5.70006C327.515 4.86006 330.915 4.44006 334.595 4.44006H341.195C343.515 4.44006 345.695 4.58006 347.735 4.86006C349.815 5.10006 351.855 5.64006 353.855 6.48006C355.855 7.28006 357.835 8.44006 359.795 9.96006C361.795 11.4401 363.855 13.4401 365.975 15.9601C367.775 17.7601 369.255 20.1401 370.415 23.1001C371.575 26.0601 372.155 29.3601 372.155 33.0001C372.155 37.0401 371.535 40.4801 370.295 43.3201C369.095 46.1601 367.375 48.4601 365.135 50.2201C362.935 52.0201 360.295 53.3201 357.215 54.1201C354.175 54.9601 350.835 55.3801 347.195 55.3801H340.595C336.515 55.3801 332.715 54.9201 329.195 54.0001C325.675 53.0801 322.775 51.5001 320.495 49.2601C318.215 47.2601 316.355 45.3801 314.915 43.6201C313.475 41.8201 312.335 40.0401 311.495 38.2801C310.695 36.5201 310.135 34.7201 309.815 32.8801C309.495 31.0401 309.335 29.0801 309.335 27.0001ZM341.195 36.1801C342.755 36.1801 344.235 36.0401 345.635 35.7601C347.075 35.4401 348.335 34.9201 349.415 34.2001C350.495 33.4801 351.335 32.5401 351.935 31.3801C352.575 30.1801 352.895 28.7201 352.895 27.0001C352.895 26.0401 352.775 25.1601 352.535 24.3601C350.895 23.8801 349.115 23.6401 347.195 23.6401H340.595C338.995 23.6401 337.475 23.8001 336.035 24.1201C334.595 24.4401 333.315 24.9601 332.195 25.6801C331.115 26.4001 330.255 27.3601 329.615 28.5601C328.975 29.7601 328.655 31.2401 328.655 33.0001C328.655 33.9601 328.735 34.7601 328.895 35.4001C329.735 35.6801 330.635 35.8801 331.595 36.0001C332.555 36.1201 333.555 36.1801 334.595 36.1801H341.195Z" fill="#0D1615"/>
<path d="M425.549 18.7201C425.549 19.8001 426.109 20.7201 427.229 21.4801C428.349 22.2401 429.669 22.8801 431.189 23.4001C432.709 23.8801 434.209 24.2601 435.689 24.5401C437.209 24.7801 438.369 24.9601 439.169 25.0801V12.8401C438.329 12.9201 437.149 13.0401 435.629 13.2001C434.109 13.3601 432.589 13.6601 431.069 14.1001C429.589 14.5001 428.289 15.0801 427.169 15.8401C426.089 16.5601 425.549 17.5201 425.549 18.7201ZM428.849 18.7201C428.849 18.2801 429.149 17.9201 429.749 17.6401C430.389 17.3201 431.109 17.0801 431.909 16.9201C432.749 16.7201 433.549 16.5801 434.309 16.5001C435.069 16.4201 435.609 16.3601 435.929 16.3201V21.2401C435.689 21.2001 435.169 21.1201 434.369 21.0001C433.609 20.8401 432.809 20.6601 431.969 20.4601C431.169 20.2201 430.449 19.9601 429.809 19.6801C429.169 19.3601 428.849 19.0401 428.849 18.7201ZM456.989 35.2801C456.989 34.5201 456.709 33.8601 456.149 33.3001C455.589 32.7001 454.869 32.1801 453.989 31.7401C453.109 31.2601 452.129 30.8601 451.049 30.5401C449.969 30.2201 448.889 29.9401 447.809 29.7001C446.769 29.4601 445.789 29.2801 444.869 29.1601C443.949 29.0001 443.229 28.8801 442.709 28.8001V41.1601C443.269 41.1201 444.009 41.0601 444.929 40.9801C445.849 40.9001 446.829 40.7801 447.869 40.6201C448.949 40.4601 450.029 40.2401 451.109 39.9601C452.189 39.6801 453.169 39.3401 454.049 38.9401C454.929 38.5001 455.629 37.9801 456.149 37.3801C456.709 36.7801 456.989 36.0801 456.989 35.2801ZM453.689 35.2801C453.689 35.7201 453.349 36.0801 452.669 36.3601C451.989 36.6401 451.209 36.8801 450.329 37.0801C449.449 37.2401 448.589 37.3601 447.749 37.4401C446.909 37.5201 446.349 37.5801 446.069 37.6201V32.7001C446.349 32.7401 446.909 32.8401 447.749 33.0001C448.589 33.1201 449.449 33.2801 450.329 33.4801C451.209 33.6801 451.989 33.9401 452.669 34.2601C453.349 34.5401 453.689 34.8801 453.689 35.2801ZM424.709 35.2201C425.589 36.3001 426.569 37.2201 427.649 37.9801C428.769 38.7001 429.949 39.3001 431.189 39.7801C432.469 40.2201 433.789 40.5601 435.149 40.8001C436.509 41.0001 437.849 41.1201 439.169 41.1601V28.5601C438.289 28.4401 437.249 28.2801 436.049 28.0801C434.889 27.8801 433.649 27.6201 432.329 27.3001C431.049 26.9401 429.769 26.5001 428.489 25.9801C427.249 25.4601 426.129 24.8601 425.129 24.1801C424.129 23.5001 423.309 22.7201 422.669 21.8401C422.069 20.9201 421.769 19.8801 421.769 18.7201C421.769 16.9201 422.429 15.4401 423.749 14.2801C425.069 13.0801 426.649 12.1401 428.489 11.4601C430.329 10.7401 432.229 10.2201 434.189 9.90006C436.189 9.58006 437.849 9.38006 439.169 9.30006V4.92006H442.709V9.30006C444.269 9.38006 445.829 9.58006 447.389 9.90006C448.989 10.1801 450.509 10.6001 451.949 11.1601C453.389 11.7201 454.729 12.4601 455.969 13.3801C457.249 14.2601 458.389 15.3601 459.389 16.6801L456.029 18.9001C455.229 17.9001 454.309 17.0401 453.269 16.3201C452.269 15.6001 451.189 15.0001 450.029 14.5201C448.869 14.0401 447.669 13.6801 446.429 13.4401C445.189 13.1601 443.949 12.9401 442.709 12.7801V25.2601C443.589 25.3801 444.649 25.5401 445.889 25.7401C447.129 25.9401 448.409 26.2201 449.729 26.5801C451.089 26.9401 452.409 27.3801 453.689 27.9001C455.009 28.4201 456.189 29.0401 457.229 29.7601C458.309 30.4401 459.169 31.2401 459.809 32.1601C460.449 33.0801 460.769 34.1201 460.769 35.2801C460.769 36.4801 460.429 37.5401 459.749 38.4601C459.109 39.3801 458.269 40.1801 457.229 40.8601C456.189 41.5401 455.009 42.1201 453.689 42.6001C452.369 43.0801 451.029 43.4601 449.669 43.7401C448.349 44.0201 447.069 44.2401 445.829 44.4001C444.629 44.5601 443.589 44.6601 442.709 44.7001V48.1801H439.169V44.7001C437.569 44.6601 435.949 44.5001 434.309 44.2201C432.669 43.9401 431.069 43.5201 429.509 42.9601C427.989 42.4001 426.549 41.6801 425.189 40.8001C423.829 39.8801 422.629 38.7601 421.589 37.4401L424.709 35.2201ZM416.909 36.6001C419.109 40.0401 421.829 42.7001 425.069 44.5801C428.309 46.4601 431.929 47.5601 435.929 47.8801V51.5401H446.069V47.8801C447.829 47.7201 449.749 47.4001 451.829 46.9201C453.949 46.4001 455.909 45.6401 457.709 44.6401C459.549 43.6401 461.069 42.3801 462.269 40.8601C463.509 39.3401 464.129 37.4801 464.129 35.2801C464.129 33.8401 463.849 32.5401 463.289 31.3801C462.729 30.1801 461.969 29.1401 461.009 28.2601C460.049 27.3401 458.949 26.5601 457.709 25.9201C456.469 25.2401 455.169 24.6601 453.809 24.1801C452.489 23.7001 451.149 23.3201 449.789 23.0401C448.469 22.7201 447.229 22.4601 446.069 22.2601V16.5601C447.949 17.0801 449.629 17.9401 451.109 19.1401C452.629 20.3001 453.929 21.6601 455.009 23.2201L464.069 17.8201C461.989 14.4601 459.449 11.8001 456.449 9.84006C453.449 7.84006 449.989 6.62006 446.069 6.18006V1.56006H435.929V6.18006C434.169 6.34006 432.269 6.68006 430.229 7.20006C428.189 7.72006 426.289 8.48006 424.529 9.48006C422.809 10.4401 421.369 11.6801 420.209 13.2001C419.049 14.7201 418.469 16.5601 418.469 18.7201C418.469 20.9201 419.049 22.7801 420.209 24.3001C421.369 25.7801 422.809 27.0201 424.529 28.0201C426.289 28.9801 428.189 29.7401 430.229 30.3001C432.269 30.8201 434.169 31.2001 435.929 31.4401V37.5601C433.729 37.2401 431.769 36.4601 430.049 35.2201C428.329 33.9801 426.849 32.4601 425.609 30.6601L416.909 36.6001ZM423.809 30.1201L422.129 28.4401C420.609 27.3601 419.369 26.0401 418.409 24.4801C417.449 22.8801 416.969 20.9601 416.969 18.7201C416.969 16.4801 417.529 14.5601 418.649 12.9601C419.769 11.3201 421.189 9.94006 422.909 8.82006C424.629 7.70006 426.509 6.82006 428.549 6.18006C430.589 5.54006 432.549 5.08006 434.429 4.80006V0.0600586H447.569L453.389 6.48006C457.229 8.12006 460.609 10.7801 463.529 14.4601L467.009 17.9401C468.769 19.7001 470.409 21.8001 471.929 24.2401L463.769 29.1001L468.209 33.5401C469.209 34.5401 469.989 35.6801 470.549 36.9601C471.149 38.2401 471.449 39.6801 471.449 41.2801C471.449 43.5601 470.849 45.5201 469.649 47.1601C468.489 48.8001 467.009 50.1601 465.209 51.2401C463.449 52.3201 461.509 53.1601 459.389 53.7601C457.269 54.4001 455.269 54.8401 453.389 55.0801V58.8601H440.609L435.869 54.1201C431.989 52.9201 428.569 50.8401 425.609 47.8801C424.009 46.4401 422.649 45.1801 421.529 44.1001C420.409 42.9801 419.429 41.9801 418.589 41.1001C417.789 40.2201 417.089 39.4001 416.489 38.6401C415.929 37.8401 415.389 37.0401 414.869 36.2401L423.809 30.1201Z" fill="#0D1615"/>
<path d="M485.123 9.30006H488.723V41.0401H522.623V44.7001H485.123V9.30006ZM481.823 48.0601H525.923V37.6801H492.083V5.94006H481.823V48.0601ZM480.323 4.44006H493.583L499.403 10.6201V36.1801H527.423L533.243 42.3601V55.3801H486.503L480.323 49.5601V4.44006Z" fill="#0D1615"/>
<path d="M588.242 31.6801L575.582 13.7401L562.622 31.6801H588.242ZM581.763 28.4401H569.042L575.462 19.4401L581.763 28.4401ZM597.182 44.7001L590.703 35.4001H560.042C558.922 36.9201 557.822 38.4801 556.742 40.0801C555.702 41.6401 554.623 43.1801 553.503 44.7001H548.703C552.943 38.7401 557.162 32.8401 561.362 27.0001C565.602 21.1601 569.822 15.2601 574.022 9.30006H576.902L601.682 44.7001H597.182ZM572.402 5.94006L542.402 48.0601H555.122L561.722 38.7601H588.842L595.383 48.0601H608.102L578.703 5.94006H572.402ZM585.422 10.6201L616.622 55.3801H600.662L594.602 49.5601L592.143 46.0801H568.443C567.963 46.8001 567.423 47.5601 566.823 48.3601C566.263 49.1601 565.683 49.9601 565.083 50.7601C564.523 51.6001 563.962 52.4001 563.402 53.1601C562.842 53.9601 562.322 54.7001 561.842 55.3801H545.823L539.462 49.5601L571.622 4.44006H579.482L585.422 10.6201Z" fill="#0D1615"/>
<path d="M657.774 16.5601C655.974 15.2001 653.954 14.2601 651.714 13.7401C649.514 13.2201 647.294 12.9601 645.054 12.9601H638.514C636.194 12.9601 634.014 13.2201 631.974 13.7401C629.974 14.2201 628.234 15.0201 626.754 16.1401C625.274 17.2201 624.094 18.6601 623.214 20.4601C622.374 22.2601 621.954 24.4401 621.954 27.0001C621.954 29.6001 622.374 31.8001 623.214 33.6001C624.054 35.3601 625.214 36.8001 626.694 37.9201C628.214 39.0001 629.974 39.8001 631.974 40.3201C633.974 40.8001 636.154 41.0401 638.514 41.0401H645.054C647.134 41.0401 649.114 40.8201 650.994 40.3801C652.914 39.9001 654.634 39.1801 656.154 38.2201C657.674 37.2201 658.974 35.9601 660.054 34.4401C661.134 32.8801 661.914 31.0001 662.394 28.8001H645.834V25.2001H666.594V27.0001C666.594 30.3201 666.014 33.1201 664.854 35.4001C663.694 37.6401 662.134 39.4601 660.174 40.8601C658.214 42.2201 655.934 43.2001 653.334 43.8001C650.734 44.4001 647.974 44.7001 645.054 44.7001H638.514C635.594 44.7001 632.894 44.3801 630.414 43.7401C627.934 43.1001 625.774 42.0801 623.934 40.6801C622.134 39.2801 620.714 37.4601 619.674 35.2201C618.634 32.9801 618.114 30.2401 618.114 27.0001C618.114 23.7601 618.634 21.0201 619.674 18.7801C620.714 16.5401 622.134 14.7201 623.934 13.3201C625.774 11.9201 627.934 10.9001 630.414 10.2601C632.894 9.62006 635.594 9.30006 638.514 9.30006H645.054C646.534 9.30006 648.014 9.36006 649.494 9.48006C650.974 9.56006 652.414 9.76006 653.814 10.0801C655.214 10.4001 656.574 10.8601 657.894 11.4601C659.254 12.0201 660.514 12.8001 661.674 13.8001L657.774 16.5601ZM666.774 14.6401C665.374 12.8001 663.854 11.3201 662.214 10.2001C660.574 9.08006 658.834 8.20006 656.994 7.56006C655.194 6.92006 653.294 6.50006 651.294 6.30006C649.294 6.06006 647.214 5.94006 645.054 5.94006H638.514C635.034 5.94006 631.854 6.34006 628.974 7.14006C626.094 7.90006 623.594 9.12006 621.474 10.8001C619.394 12.4801 617.774 14.6601 616.614 17.3401C615.454 19.9801 614.874 23.2001 614.874 27.0001C614.874 30.8001 615.454 34.0401 616.614 36.7201C617.774 39.3601 619.394 41.5201 621.474 43.2001C623.594 44.8801 626.094 46.1201 628.974 46.9201C631.854 47.6801 635.034 48.0601 638.514 48.0601H645.054C648.494 48.0601 651.714 47.7001 654.714 46.9801C657.754 46.2201 660.394 45.0201 662.634 43.3801C664.874 41.7001 666.634 39.5201 667.914 36.8401C669.234 34.1601 669.894 30.8801 669.894 27.0001V21.9001H642.474V32.1001H658.074C657.434 33.1801 656.614 34.0801 655.614 34.8001C654.614 35.5201 653.514 36.1001 652.314 36.5401C651.154 36.9401 649.934 37.2401 648.654 37.4401C647.414 37.6001 646.214 37.6801 645.054 37.6801H638.514C636.714 37.6801 635.014 37.5001 633.414 37.1401C631.814 36.7801 630.414 36.2001 629.214 35.4001C628.014 34.5601 627.054 33.4601 626.334 32.1001C625.614 30.7401 625.254 29.0401 625.254 27.0001C625.254 25.0001 625.614 23.3201 626.334 21.9601C627.054 20.6001 628.014 19.5001 629.214 18.6601C630.454 17.8201 631.874 17.2201 633.474 16.8601C635.074 16.5001 636.754 16.3201 638.514 16.3201H645.054C647.414 16.3201 649.674 16.7001 651.834 17.4601C653.994 18.1801 655.914 19.4201 657.594 21.1801L666.774 14.6401ZM624.474 48.9601C622.234 47.0401 620.394 45.2201 618.954 43.5001C617.514 41.7801 616.374 40.0601 615.534 38.3401C614.734 36.5801 614.174 34.8001 613.854 33.0001C613.534 31.1601 613.374 29.1601 613.374 27.0001C613.374 22.9201 613.994 19.4601 615.234 16.6201C616.474 13.7401 618.194 11.4001 620.394 9.60006C622.634 7.80006 625.294 6.50006 628.374 5.70006C631.454 4.86006 634.834 4.44006 638.514 4.44006H645.054C647.254 4.44006 649.374 4.54006 651.414 4.74006C653.454 4.94006 655.434 5.36006 657.354 6.00006C659.274 6.60006 661.114 7.52006 662.874 8.76006C664.674 9.96006 666.414 11.5801 668.094 13.6201C669.294 14.8201 670.274 15.8201 671.034 16.6201C671.794 17.4201 672.394 18.1001 672.834 18.6601C673.314 19.2201 673.674 19.6801 673.914 20.0401C674.194 20.3601 674.434 20.6601 674.634 20.9401L672.834 22.2001L677.214 26.5801V33.0001C677.214 37.1201 676.534 40.6001 675.174 43.4401C673.814 46.2801 671.954 48.5801 669.594 50.3401C667.234 52.1401 664.454 53.4201 661.254 54.1801C658.094 54.9801 654.694 55.3801 651.054 55.3801H644.514C640.434 55.3801 636.634 54.8601 633.114 53.8201C629.594 52.8201 626.714 51.2001 624.474 48.9601ZM640.974 24.0001C639.774 24.2001 638.654 24.5201 637.614 24.9601C636.614 25.3601 635.734 25.9201 634.974 26.6401C634.214 27.3601 633.614 28.2601 633.174 29.3401C632.774 30.3801 632.574 31.6001 632.574 33.0001C632.574 33.9601 632.654 34.7601 632.814 35.4001C633.654 35.6801 634.554 35.8801 635.514 36.0001C636.474 36.1201 637.474 36.1801 638.514 36.1801H643.914L640.974 33.6001V24.0001Z" fill="#0D1615"/>
</svg>
