<svg width="156" height="145" viewBox="0 0 156 145" fill="none" xmlns="http://www.w3.org/2000/svg">
<path d="M71.1056 144.23L73.5108 119.783C70.8502 119.522 68.1879 119.063 65.6013 118.418L59.1388 142.167C63.0546 143.141 67.081 143.835 71.1108 144.23L71.1056 144.23ZM83.2442 144.538C87.2849 144.343 91.3287 143.854 95.2708 143.074L89.4694 119.023C86.8728 119.538 84.2016 119.862 81.5342 119.988L83.2442 144.538ZM47.6204 138.391L57.9991 115.931C55.5468 114.921 53.1651 113.72 50.9128 112.366L36.8497 132.976C40.2696 135.033 43.8946 136.855 47.6204 138.391ZM106.881 139.865C110.64 138.515 114.308 136.871 117.788 134.981L104.28 113.699C101.991 114.946 99.5781 116.026 97.1064 116.911L106.881 139.865ZM27.1042 126.058L44.5003 107.813C42.5063 106.156 40.6278 104.327 38.9063 102.382L18.6399 117.839L18.6539 117.855C21.2449 120.79 24.0869 123.551 27.1042 126.058ZM127.551 128.673L127.725 128.535C130.825 126.167 133.741 123.559 136.393 120.784L116.595 104.301C114.846 106.134 112.916 107.861 110.86 109.436L110.573 109.659L118.728 118.381L127.551 128.673ZM11.6245 108.513L34.2535 96.2009C32.8849 94.0487 31.6935 91.7832 30.7047 89.4649L6.23164 98.2712C7.73134 101.791 9.54504 105.236 11.625 108.508L11.6245 108.513ZM143.681 111.785C145.841 108.623 147.744 105.267 149.345 101.813L125.118 91.8176C124.07 94.0911 122.814 96.296 121.394 98.3783L143.681 111.785ZM2.62675 87.3869L28.3357 82.3024C27.7474 79.8734 27.3633 77.3771 27.1863 74.8866L0.885132 76.1528C1.14952 79.9246 1.73536 83.7037 2.62628 87.3918L2.62675 87.3869ZM153.239 91.1314C154.229 87.4922 154.918 83.746 155.291 79.998L129.044 77.4122C128.802 79.8905 128.346 82.3673 127.689 84.7761L153.239 91.1314ZM27.2905 67.4052C27.5333 64.9268 27.9896 62.4451 28.6407 60.0408L3.08528 53.6944C2.09485 57.3336 1.41087 61.0803 1.03847 64.8285L27.286 67.3999L27.2905 67.4052ZM129.154 69.9263L155.454 68.6745C155.195 64.9032 154.609 61.1241 153.723 57.4366L128.011 62.5064C128.598 64.9402 128.983 67.4316 129.155 69.9215L129.154 69.9263ZM31.2069 52.9938C32.2557 50.7203 33.5113 48.5106 34.9261 46.4277L12.6277 33.0347C10.4734 36.1968 8.57025 39.553 6.97444 43.007L31.2017 52.9933L31.2069 52.9938ZM125.641 55.3486L150.123 46.5577C148.624 43.0326 146.81 39.5882 144.735 36.3166L122.097 48.6178C123.46 50.7696 124.652 53.0351 125.641 55.3534L125.641 55.3486ZM39.7199 40.5091C41.4746 38.6676 43.4113 36.9311 45.4777 35.3575L45.5338 35.3145L28.6687 16.2105L28.6126 16.2534C25.5012 18.6298 22.5736 21.2517 19.916 24.0354L39.7199 40.5091ZM117.511 42.5013L123.637 37.7246L137.716 26.9755L137.679 26.9332C135.102 24.0141 132.269 21.2636 129.262 18.7572L111.857 36.9915C113.846 38.6481 115.72 40.4674 117.426 42.406L117.511 42.5013ZM52.0796 31.0822C54.368 29.84 56.7808 28.7599 59.2525 27.8744L49.4937 4.91727C45.7346 6.2671 42.0667 7.90656 38.5875 9.7968L52.0796 31.0822ZM105.449 32.4388L119.527 11.841C116.107 9.78307 112.488 7.95724 108.762 6.42103L98.3682 28.8752C100.82 29.8897 103.202 31.0862 105.454 32.4441L105.449 32.4388ZM66.8999 25.7635C69.5011 25.2536 72.1724 24.9296 74.8346 24.8033L73.1404 0.250183C69.1052 0.440475 65.0565 0.929499 61.1142 1.70965L66.8999 25.7635ZM90.772 26.3791L97.2449 2.63093C93.3292 1.65689 89.3032 0.957587 85.2786 0.563317L82.8578 25.0084C85.5187 25.2691 88.1802 25.7332 90.772 26.3791Z" fill="url(#paint0_linear_4307_7)"/>
<path d="M73.41 120.864L75.8171 96.2929C73.5999 96.0757 71.4144 95.5892 69.3267 94.8545L60.1522 117.921C64.4183 119.428 68.8768 120.42 73.41 120.864ZM86.9868 120.55C91.4804 119.896 95.8593 118.695 99.9893 116.979L88.7917 94.4023C86.7815 95.2366 84.654 95.821 82.4687 96.1371L86.9868 120.55ZM48.0849 111.889L63.456 91.9203C61.6512 90.7122 60.01 89.282 58.5708 87.6672L58.3481 87.4215L49.163 94.7712L37.9642 103.047L38.1018 103.197C41.0265 106.489 44.387 109.411 48.0901 111.89L48.0849 111.889ZM111.475 110.395L111.48 110.395C114.983 107.727 118.084 104.66 120.697 101.268L98.9295 86.7131C97.6533 88.3682 96.135 89.8685 94.4149 91.1738L111.475 110.395ZM30.7989 92.408L54.9951 82.3848C54.0651 80.5084 53.4078 78.5275 53.0345 76.492L26.7626 80.2949C27.5305 84.4706 28.8912 88.5487 30.7989 92.408ZM127.027 90.1806C128.589 86.2478 129.592 82.1289 130.008 77.9331L103.466 75.3232C103.264 77.3804 102.772 79.3994 102.006 81.3235L127.027 90.1806ZM52.7765 70.3282C52.9781 68.271 53.4703 66.2519 54.2419 64.3285L29.2273 55.4572C27.6599 59.3895 26.6521 63.5079 26.241 67.7042L52.7817 70.3287L52.7765 70.3282ZM103.203 69.1541L129.471 65.3409C128.698 61.1647 127.337 57.0866 125.429 53.2323L101.237 63.2656C102.167 65.1418 102.83 67.1232 103.203 69.1541ZM57.3187 58.934C58.5768 57.3014 60.0777 55.8189 61.7704 54.5254L61.8442 54.4695L53.2119 44.7518L44.937 35.1419L44.7558 35.275C41.259 37.9287 38.164 40.9867 35.5575 44.3696L57.3187 58.934ZM97.6798 58.0093L107.932 50.2291L118.352 42.7087L118.135 42.4588C115.22 39.1769 111.865 36.2556 108.171 33.7828L92.7904 53.7461C94.5706 54.9371 96.1974 56.3514 97.6182 57.94L97.6798 58.0093ZM67.456 51.2496C69.4611 50.4148 71.5881 49.8352 73.7789 49.5148L69.2766 25.1036C64.7778 25.7572 60.4045 26.9535 56.2693 28.6691L67.456 51.2496ZM86.9248 50.8124L96.1149 27.7474C91.8495 26.235 87.3908 25.2438 82.8581 24.7949L80.4354 49.3644C82.6578 49.5821 84.8433 50.0686 86.9305 50.8081L86.9248 50.8124Z" fill="url(#paint1_linear_4307_7)"/>
<defs>
<linearGradient id="paint0_linear_4307_7" x1="78.1696" y1="0.250183" x2="78.1696" y2="144.538" gradientUnits="userSpaceOnUse">
<stop stop-color="#2EFFA8"/>
<stop offset="1" stop-color="#003E24"/>
</linearGradient>
<linearGradient id="paint1_linear_4307_7" x1="82.8295" y1="24.7921" x2="73.4177" y2="120.865" gradientUnits="userSpaceOnUse">
<stop stop-color="#6EFEC2"/>
<stop offset="1" stop-color="#005C36"/>
</linearGradient>
</defs>
</svg>
