<svg width="482" height="97" viewBox="0 0 482 97" fill="none" xmlns="http://www.w3.org/2000/svg">
<path d="M4.2547 37.25V7.75005H7.2547V37.25H4.2547ZM10.0047 40.05V4.95005H1.5047V40.05H10.0047ZM0.2547 41.3V3.70005H11.2547L16.1047 8.85005V46.1501H5.4047L0.2547 41.3Z" fill="#0D1615"/>
<path d="M31.0399 12.5V37.25H28.0899V7.75005H30.6399L57.4899 32.5V7.75005H60.4899V37.25H57.9899L31.0399 12.5ZM63.2899 4.95005H54.7399V26.2L31.5899 4.95005H25.2899V40.05H33.8399V18.75L57.0399 40.05H63.2899V4.95005ZM24.0399 41.3V3.70005H32.0399L53.4899 23.35V3.70005H64.5399L69.3899 8.85005V46.1501H61.5899L39.9399 26.3V46.1501H29.1899L24.0399 41.3Z" fill="#0D1615"/>
<path d="M116.002 15.6C116.002 16.5 116.469 17.2667 117.402 17.9C118.336 18.5334 119.436 19.0667 120.702 19.5C121.969 19.9 123.219 20.2167 124.452 20.45C125.719 20.65 126.686 20.8 127.352 20.9V10.7C126.652 10.7667 125.669 10.8667 124.402 11C123.136 11.1334 121.869 11.3834 120.602 11.7501C119.369 12.0834 118.286 12.5667 117.352 13.2C116.452 13.8 116.002 14.6 116.002 15.6ZM118.752 15.6C118.752 15.2334 119.002 14.9334 119.502 14.7C120.036 14.4334 120.636 14.2334 121.302 14.1C122.002 13.9334 122.669 13.8167 123.302 13.75C123.936 13.6834 124.386 13.6334 124.652 13.6V17.7001C124.452 17.6667 124.019 17.6 123.352 17.5C122.719 17.3667 122.052 17.2167 121.352 17.05C120.686 16.85 120.086 16.6334 119.552 16.4C119.019 16.1334 118.752 15.8667 118.752 15.6ZM142.202 29.4C142.202 28.7667 141.969 28.2167 141.502 27.75C141.036 27.25 140.436 26.8167 139.702 26.45C138.969 26.05 138.152 25.7167 137.252 25.4501C136.352 25.1834 135.452 24.95 134.552 24.75C133.686 24.55 132.869 24.4 132.102 24.3C131.336 24.1667 130.736 24.0667 130.302 24V34.3C130.769 34.2667 131.386 34.2167 132.152 34.1501C132.919 34.0834 133.736 33.9834 134.602 33.85C135.502 33.7167 136.402 33.5334 137.302 33.3C138.202 33.0667 139.019 32.7834 139.752 32.4501C140.486 32.0834 141.069 31.65 141.502 31.15C141.969 30.65 142.202 30.0667 142.202 29.4ZM139.452 29.4C139.452 29.7667 139.169 30.0667 138.602 30.3C138.036 30.5334 137.386 30.7334 136.652 30.9C135.919 31.0334 135.202 31.1334 134.502 31.2C133.802 31.2667 133.336 31.3167 133.102 31.35V27.25C133.336 27.2834 133.802 27.3667 134.502 27.5C135.202 27.6 135.919 27.7334 136.652 27.9C137.386 28.0667 138.036 28.2834 138.602 28.55C139.169 28.7834 139.452 29.0667 139.452 29.4ZM115.302 29.35C116.036 30.2501 116.852 31.0167 117.752 31.65C118.686 32.25 119.669 32.7501 120.702 33.1501C121.769 33.5167 122.869 33.8 124.002 34C125.136 34.1667 126.252 34.2667 127.352 34.3V23.8001C126.619 23.7001 125.752 23.5667 124.752 23.4C123.786 23.2334 122.752 23.0167 121.652 22.75C120.586 22.4501 119.519 22.0834 118.452 21.65C117.419 21.2167 116.486 20.7167 115.652 20.15C114.819 19.5834 114.136 18.9334 113.602 18.2C113.102 17.4334 112.852 16.5667 112.852 15.6C112.852 14.1 113.402 12.8667 114.502 11.9C115.602 10.9 116.919 10.1167 118.452 9.55005C119.986 8.95005 121.569 8.51671 123.202 8.25005C124.869 7.98338 126.252 7.81672 127.352 7.75005V4.10005H130.302V7.75005C131.602 7.81672 132.902 7.98338 134.202 8.25005C135.536 8.48338 136.802 8.83338 138.002 9.30005C139.202 9.76672 140.319 10.3834 141.352 11.15C142.419 11.8834 143.369 12.8 144.202 13.9L141.402 15.75C140.736 14.9167 139.969 14.2 139.102 13.6C138.269 13 137.369 12.5 136.402 12.1C135.436 11.7 134.436 11.4 133.402 11.2C132.369 10.9667 131.336 10.7834 130.302 10.65V21.05C131.036 21.15 131.919 21.2834 132.952 21.45C133.986 21.6167 135.052 21.85 136.152 22.15C137.286 22.45 138.386 22.8167 139.452 23.25C140.552 23.6834 141.536 24.2 142.402 24.8C143.302 25.3667 144.019 26.0334 144.552 26.8001C145.086 27.5667 145.352 28.4334 145.352 29.4C145.352 30.4 145.069 31.2834 144.502 32.05C143.969 32.8167 143.269 33.4834 142.402 34.05C141.536 34.6167 140.552 35.1 139.452 35.5C138.352 35.9 137.236 36.2167 136.102 36.4501C135.002 36.6834 133.936 36.8667 132.902 37C131.902 37.1334 131.036 37.2167 130.302 37.25V40.1501H127.352V37.25C126.019 37.2167 124.669 37.0834 123.302 36.8501C121.936 36.6167 120.602 36.2667 119.302 35.8C118.036 35.3334 116.836 34.7334 115.702 34C114.569 33.2334 113.569 32.3 112.702 31.2L115.302 29.35ZM108.802 30.5C110.636 33.3667 112.902 35.5834 115.602 37.1501C118.302 38.7167 121.319 39.6334 124.652 39.9001V42.9501H133.102V39.9001C134.569 39.7667 136.169 39.5001 137.902 39.1001C139.669 38.6667 141.302 38.0334 142.802 37.2001C144.336 36.3667 145.602 35.3167 146.602 34.05C147.636 32.7834 148.152 31.2334 148.152 29.4C148.152 28.2 147.919 27.1167 147.452 26.15C146.986 25.15 146.352 24.2834 145.552 23.55C144.752 22.7834 143.836 22.1334 142.802 21.6C141.769 21.0334 140.686 20.55 139.552 20.15C138.452 19.75 137.336 19.4334 136.202 19.2001C135.102 18.9334 134.069 18.7167 133.102 18.55V13.8C134.669 14.2334 136.069 14.95 137.302 15.95C138.569 16.9167 139.652 18.05 140.552 19.35L148.102 14.85C146.369 12.05 144.252 9.83338 141.752 8.20005C139.252 6.53338 136.369 5.51671 133.102 5.15005V1.30005H124.652V5.15005C123.186 5.28338 121.602 5.56672 119.902 6.00005C118.202 6.43338 116.619 7.06671 115.152 7.90005C113.719 8.70005 112.519 9.73338 111.552 11C110.586 12.2667 110.102 13.8 110.102 15.6C110.102 17.4334 110.586 18.9834 111.552 20.25C112.519 21.4834 113.719 22.5167 115.152 23.35C116.619 24.15 118.202 24.7834 119.902 25.25C121.602 25.6834 123.186 26 124.652 26.2V31.3C122.819 31.0334 121.186 30.3834 119.752 29.35C118.319 28.3167 117.086 27.0501 116.052 25.5501L108.802 30.5ZM114.552 25.1L113.152 23.7001C111.886 22.8001 110.852 21.7 110.052 20.4C109.252 19.0667 108.852 17.4667 108.852 15.6C108.852 13.7334 109.319 12.1334 110.252 10.8C111.186 9.43338 112.369 8.28338 113.802 7.35005C115.236 6.41671 116.802 5.68338 118.502 5.15005C120.202 4.61671 121.836 4.23338 123.402 4.00005V0.0500488H134.352L139.202 5.40005C142.402 6.76672 145.219 8.98338 147.652 12.05L150.552 14.95C152.019 16.4167 153.386 18.1667 154.652 20.2L147.852 24.25L151.552 27.9501C152.386 28.7834 153.036 29.7334 153.502 30.8C154.002 31.8667 154.252 33.0667 154.252 34.4001C154.252 36.3001 153.752 37.9334 152.752 39.3C151.786 40.6667 150.552 41.8001 149.052 42.7001C147.586 43.6001 145.969 44.3 144.202 44.8C142.436 45.3334 140.769 45.7001 139.202 45.9001V49.05H128.552L124.602 45.1001C121.369 44.1001 118.519 42.3667 116.052 39.9001C114.719 38.7001 113.586 37.65 112.652 36.75C111.719 35.8167 110.902 34.9834 110.202 34.25C109.536 33.5167 108.952 32.8334 108.452 32.2001C107.986 31.5334 107.536 30.8667 107.102 30.2001L114.552 25.1Z" fill="#0D1615"/>
<path d="M165.589 7.75005H168.589V34.2001H196.839V37.25H165.589V7.75005ZM162.839 40.05H199.589V31.4H171.389V4.95005H162.839V40.05ZM161.589 3.70005H172.639L177.489 8.85005V30.15H200.839L205.689 35.3V46.1501H166.739L161.589 41.3V3.70005Z" fill="#0D1615"/>
<path d="M251.463 26.4L240.913 11.45L230.113 26.4H251.463ZM246.063 23.7001H235.463L240.813 16.2001L246.063 23.7001ZM258.913 37.25L253.513 29.5H227.963C227.03 30.7667 226.113 32.0667 225.213 33.4001C224.346 34.7001 223.446 35.9834 222.513 37.25H218.513C222.046 32.2834 225.563 27.3667 229.063 22.5C232.596 17.6334 236.113 12.7167 239.613 7.75005H242.013L262.663 37.25H258.913ZM238.263 4.95005L213.263 40.05H223.863L229.363 32.3H251.963L257.413 40.05H268.013L243.513 4.95005H238.263ZM249.113 8.85005L275.113 46.1501H261.813L256.763 41.3L254.713 38.4001H234.963C234.563 39.0001 234.113 39.6334 233.613 40.3C233.146 40.9667 232.663 41.6334 232.163 42.3C231.696 43 231.23 43.6667 230.763 44.3C230.296 44.9667 229.863 45.5834 229.463 46.1501H216.113L210.813 41.3L237.613 3.70005H244.163L249.113 8.85005Z" fill="#0D1615"/>
<path d="M309.347 13.8C307.847 12.6667 306.164 11.8834 304.297 11.45C302.464 11.0167 300.614 10.8 298.747 10.8H293.297C291.364 10.8 289.547 11.0167 287.847 11.45C286.181 11.85 284.731 12.5167 283.497 13.45C282.264 14.35 281.281 15.55 280.547 17.05C279.847 18.55 279.497 20.3667 279.497 22.5C279.497 24.6667 279.847 26.5 280.547 28C281.247 29.4667 282.214 30.6667 283.447 31.6C284.714 32.5001 286.181 33.1667 287.847 33.6C289.514 34 291.331 34.2001 293.297 34.2001H298.747C300.481 34.2001 302.131 34.0167 303.697 33.6501C305.297 33.2501 306.731 32.65 307.997 31.85C309.264 31.0167 310.347 29.9667 311.247 28.7001C312.147 27.4001 312.797 25.8334 313.197 24H299.397V21H316.697V22.5C316.697 25.2667 316.214 27.6 315.247 29.5C314.281 31.3667 312.981 32.8834 311.347 34.05C309.714 35.1834 307.814 36 305.647 36.5C303.481 37 301.181 37.25 298.747 37.25H293.297C290.864 37.25 288.614 36.9834 286.547 36.4501C284.481 35.9167 282.681 35.0667 281.147 33.9001C279.647 32.7334 278.464 31.2167 277.597 29.35C276.731 27.4834 276.297 25.2 276.297 22.5C276.297 19.8 276.731 17.5167 277.597 15.65C278.464 13.7834 279.647 12.2667 281.147 11.1C282.681 9.93338 284.481 9.08338 286.547 8.55005C288.614 8.01672 290.864 7.75005 293.297 7.75005H298.747C299.981 7.75005 301.214 7.80005 302.447 7.90005C303.681 7.96672 304.881 8.13338 306.047 8.40005C307.214 8.66672 308.347 9.05005 309.447 9.55005C310.581 10.0167 311.631 10.6667 312.597 11.5L309.347 13.8ZM316.847 12.2C315.681 10.6667 314.414 9.43338 313.047 8.50005C311.681 7.56671 310.231 6.83338 308.697 6.30005C307.197 5.76671 305.614 5.41671 303.947 5.25005C302.281 5.05005 300.547 4.95005 298.747 4.95005H293.297C290.397 4.95005 287.747 5.28338 285.347 5.95005C282.947 6.58338 280.864 7.60005 279.097 9.00005C277.364 10.4 276.014 12.2167 275.047 14.45C274.081 16.65 273.597 19.3334 273.597 22.5C273.597 25.6667 274.081 28.3667 275.047 30.6C276.014 32.8001 277.364 34.6 279.097 36C280.864 37.4 282.947 38.4334 285.347 39.1001C287.747 39.7334 290.397 40.05 293.297 40.05H298.747C301.614 40.05 304.297 39.7501 306.797 39.1501C309.331 38.5167 311.531 37.5167 313.397 36.1501C315.264 34.7501 316.731 32.9334 317.797 30.7001C318.897 28.4667 319.447 25.7334 319.447 22.5V18.25H296.597V26.75H309.597C309.064 27.65 308.381 28.4 307.547 29C306.714 29.6 305.797 30.0834 304.797 30.45C303.831 30.7834 302.814 31.0334 301.747 31.2C300.714 31.3334 299.714 31.4 298.747 31.4H293.297C291.797 31.4 290.381 31.2501 289.047 30.9501C287.714 30.6501 286.547 30.1667 285.547 29.5C284.547 28.8 283.747 27.8834 283.147 26.75C282.547 25.6167 282.247 24.2 282.247 22.5C282.247 20.8334 282.547 19.4334 283.147 18.3C283.747 17.1667 284.547 16.25 285.547 15.55C286.581 14.85 287.764 14.35 289.097 14.05C290.431 13.75 291.831 13.6 293.297 13.6H298.747C300.714 13.6 302.597 13.9167 304.397 14.55C306.197 15.15 307.797 16.1834 309.197 17.65L316.847 12.2ZM281.597 40.8C279.731 39.2 278.197 37.6834 276.997 36.25C275.797 34.8167 274.847 33.3834 274.147 31.9501C273.481 30.4834 273.014 29 272.747 27.5C272.481 25.9667 272.347 24.3001 272.347 22.5C272.347 19.1 272.864 16.2167 273.897 13.85C274.931 11.45 276.364 9.50005 278.197 8.00005C280.064 6.50005 282.281 5.41671 284.847 4.75005C287.414 4.05005 290.231 3.70005 293.297 3.70005H298.747C300.581 3.70005 302.347 3.78338 304.047 3.95005C305.747 4.11672 307.397 4.46672 308.997 5.00005C310.597 5.50005 312.131 6.26671 313.597 7.30005C315.097 8.30005 316.547 9.65005 317.947 11.35C318.947 12.35 319.764 13.1834 320.397 13.85C321.031 14.5167 321.531 15.0834 321.897 15.55C322.297 16.0167 322.597 16.4 322.797 16.7C323.031 16.9667 323.231 17.2167 323.397 17.45L321.897 18.5L325.547 22.15V27.5C325.547 30.9334 324.981 33.8334 323.847 36.2001C322.714 38.5667 321.164 40.4834 319.197 41.9501C317.231 43.4501 314.914 44.5167 312.247 45.1501C309.614 45.8167 306.781 46.1501 303.747 46.1501H298.297C294.897 46.1501 291.731 45.7167 288.797 44.8501C285.864 44.0167 283.464 42.6667 281.597 40.8ZM295.347 20C294.347 20.1667 293.414 20.4334 292.547 20.8001C291.714 21.1334 290.981 21.6001 290.347 22.2001C289.714 22.8 289.214 23.55 288.847 24.45C288.514 25.3167 288.347 26.3334 288.347 27.5C288.347 28.3 288.414 28.9667 288.547 29.5C289.247 29.7334 289.997 29.9 290.797 30C291.597 30.1 292.431 30.15 293.297 30.15H297.797L295.347 28V20Z" fill="#0D1615"/>
<path d="M382.928 32.1501C384.594 28.0167 386.311 23.95 388.078 19.95C389.844 15.9167 391.578 11.85 393.278 7.75005H395.728L406.078 32.1C407.778 28.0334 409.478 23.9834 411.178 19.95C412.878 15.9167 414.561 11.85 416.228 7.75005H419.728C417.694 12.7167 415.661 17.6334 413.628 22.5C411.594 27.3667 409.561 32.2834 407.528 37.25H404.978L394.528 12.85L383.978 37.25H381.528C379.528 32.2834 377.511 27.3667 375.478 22.5C373.444 17.6 371.394 12.6834 369.328 7.75005H372.828L382.928 32.1501ZM379.728 40.05H385.928C387.328 36.65 388.728 33.3 390.128 30C391.561 26.6667 393.011 23.3167 394.478 19.95L403.078 40.05H409.328L423.828 4.95005H414.378C413.011 8.28338 411.628 11.6 410.228 14.9C408.861 18.1667 407.478 21.4667 406.078 24.8L397.578 4.95005H391.478L382.928 24.9L374.628 4.95005H365.228L379.728 40.05ZM375.428 3.70005L380.328 8.85005L384.278 18.45C385.344 15.9834 386.411 13.5334 387.478 11.1C388.544 8.66672 389.611 6.20005 390.678 3.70005H398.428L403.328 8.85005L407.378 18.45L407.978 17.05C408.178 16.5834 408.394 16.0834 408.628 15.55C408.894 14.9834 409.111 14.4667 409.278 14C410.011 12.3 410.744 10.5667 411.478 8.80005C412.211 7.00005 412.911 5.30005 413.578 3.70005H425.678L430.428 8.85005L415.028 46.1501H407.328L402.228 41.3L397.928 31.3C396.861 33.8 395.794 36.3 394.728 38.8C393.661 41.2667 392.628 43.7167 391.628 46.1501H384.028L378.928 41.3L363.378 3.70005H375.428Z" fill="#0D1615"/>
<path d="M467.629 21V24H442.179V34.2001H472.829V37.25H439.079V7.75005H472.779V10.8H442.179V21H467.629ZM475.579 13.6V4.95005H436.279V40.05H475.629V31.4H444.929V26.75H470.379V18.25H444.929V13.6H475.579ZM435.029 41.3V3.70005H476.829L481.679 8.85005V19.7H474.029L476.479 22.15V30.15L481.729 35.3V46.1501H440.179L435.029 41.3Z" fill="#0D1615"/>
<path d="M97.7373 71C98.5373 71 99.3207 70.9167 100.087 70.75C100.854 70.55 101.537 70.2501 102.137 69.8501C102.771 69.4501 103.271 68.9334 103.637 68.3C104.004 67.6334 104.187 66.8501 104.187 65.9501C104.187 65.0167 104.004 64.2334 103.637 63.6001C103.304 62.9334 102.837 62.4 102.237 62C101.637 61.5667 100.954 61.2667 100.187 61.1C99.4207 60.9 98.6206 60.8 97.7873 60.8H76.3873V71H97.7373ZM97.7873 63.6001C98.154 63.6001 98.554 63.6334 98.9873 63.7001C99.4207 63.7667 99.8207 63.9001 100.187 64.1001C100.554 64.2667 100.854 64.5 101.087 64.8C101.321 65.1 101.437 65.4834 101.437 65.9501C101.437 66.4167 101.304 66.8001 101.037 67.1001C100.804 67.3667 100.487 67.6 100.087 67.8C99.7207 67.9667 99.3207 68.0834 98.8873 68.15C98.454 68.2167 98.0707 68.25 97.7373 68.25H79.1873V63.6001H97.7873ZM100.437 84.2001C101.237 84.2001 102.037 84.1167 102.837 83.9501C103.637 83.7501 104.337 83.45 104.937 83.05C105.571 82.6167 106.071 82.0834 106.437 81.4501C106.837 80.7834 107.037 79.9834 107.037 79.05C107.037 78.2167 106.871 77.4834 106.537 76.8501C106.204 76.2167 105.754 75.7 105.187 75.3C104.621 74.8667 103.971 74.5501 103.237 74.3501C102.537 74.1167 101.804 74 101.037 74H76.3873V84.2001H100.437ZM101.037 76.75C101.371 76.75 101.721 76.8 102.087 76.9C102.487 76.9667 102.837 77.1 103.137 77.3C103.471 77.4667 103.737 77.7 103.937 78C104.137 78.3 104.237 78.65 104.237 79.05C104.237 79.55 104.104 79.9501 103.837 80.2501C103.604 80.5501 103.287 80.7834 102.887 80.9501C102.521 81.1167 102.104 81.2334 101.637 81.3C101.204 81.3667 100.804 81.4 100.437 81.4H79.1873V76.75H101.037ZM97.7873 57.75C99.154 57.75 100.421 57.9 101.587 58.2C102.754 58.5 103.754 58.9834 104.587 59.65C105.454 60.3167 106.121 61.1667 106.587 62.2C107.087 63.2334 107.354 64.4834 107.387 65.9501C107.387 66.7501 107.204 67.5167 106.837 68.25C106.504 68.95 106.087 69.5667 105.587 70.1001C105.087 70.6334 104.554 71.0667 103.987 71.4C103.421 71.7 102.937 71.8667 102.537 71.9C103.437 71.9667 104.337 72.2001 105.237 72.6001C106.137 72.9667 106.937 73.4667 107.637 74.1001C108.371 74.7334 108.971 75.4667 109.437 76.3C109.904 77.1334 110.137 78.05 110.137 79.05C110.137 80.55 109.887 81.8334 109.387 82.9C108.887 83.9334 108.187 84.7834 107.287 85.4501C106.421 86.0834 105.387 86.5501 104.187 86.8501C103.021 87.1167 101.771 87.2501 100.437 87.2501H73.3873V57.75H97.7873ZM100.437 90.05C102.237 90.05 103.904 89.8501 105.437 89.4501C106.971 89.0167 108.287 88.3667 109.387 87.5001C110.487 86.6001 111.354 85.4667 111.987 84.1001C112.621 82.7001 112.937 81.0167 112.937 79.05C112.937 77.3834 112.471 75.9001 111.537 74.6001C110.637 73.3001 109.271 72.2667 107.437 71.5001C107.837 71.1667 108.204 70.7834 108.537 70.3501C108.871 69.8834 109.154 69.4 109.387 68.9C109.621 68.4 109.804 67.9 109.937 67.4C110.071 66.8667 110.137 66.3834 110.137 65.9501C110.137 64.0501 109.837 62.4167 109.237 61.05C108.637 59.65 107.787 58.5001 106.687 57.6001C105.621 56.7001 104.321 56.0334 102.787 55.6C101.287 55.1667 99.6206 54.95 97.7873 54.95H70.5873V90.05H100.437ZM69.3373 53.7001H97.7873C100.787 53.7001 103.504 54.2 105.937 55.2C108.371 56.2 110.637 57.9501 112.737 60.4501C113.437 61.2834 114.071 62.3167 114.637 63.55C115.204 64.75 115.604 66.0167 115.837 67.3501C116.071 68.6501 116.071 69.9334 115.837 71.2001C115.637 72.4667 115.104 73.5501 114.237 74.4501C115.104 74.7834 115.837 75.35 116.437 76.15C117.037 76.9167 117.521 77.7667 117.887 78.7001C118.287 79.6334 118.571 80.5834 118.737 81.55C118.937 82.5167 119.037 83.35 119.037 84.05C119.037 86.2167 118.687 88.0667 117.987 89.6001C117.321 91.1001 116.387 92.3334 115.187 93.3C113.987 94.3 112.554 95.0167 110.887 95.4501C109.221 95.9167 107.404 96.15 105.437 96.15H74.4873L69.3373 91.3V53.7001Z" fill="#0D1615"/>
<path d="M157.35 71V74H131.9V84.2001H162.55V87.2501H128.8V57.75H162.5V60.8H131.9V71H157.35ZM165.3 63.6001V54.95H126V90.05H165.35V81.4H134.65V76.75H160.1V68.25H134.65V63.6001H165.3ZM124.75 91.3V53.7001H166.55L171.4 58.85V69.7001H163.75L166.2 72.15V80.15L171.45 85.3V96.15H129.9L124.75 91.3Z" fill="#0D1615"/>
<path d="M185.117 57.75V84.2001H213.367V87.2501H182.117V57.75H185.117ZM216.117 90.05V81.4H187.917V54.95H179.367V90.05H216.117ZM178.117 53.7001H189.167L194.017 58.85V80.15H217.367L222.217 85.3V96.15H183.267L178.117 91.3V53.7001Z" fill="#0D1615"/>
<path d="M232.941 57.75H235.941V87.2501H232.941V57.75ZM238.691 54.95H230.191V90.05H238.691V54.95ZM228.941 91.3V53.7001H239.941L244.791 58.85V96.15H234.091L228.941 91.3Z" fill="#0D1615"/>
<path d="M285.426 71V74H259.976V84.2001H290.626V87.2501H256.876V57.75H290.576V60.8H259.976V71H285.426ZM293.376 63.6001V54.95H254.076V90.05H293.426V81.4H262.726V76.75H288.176V68.25H262.726V63.6001H293.376ZM252.826 91.3V53.7001H294.626L299.476 58.85V69.7001H291.826L294.276 72.15V80.15L299.526 85.3V96.15H257.976L252.826 91.3Z" fill="#0D1615"/>
<path d="M328.481 87.2501C324.948 82.2834 321.431 77.3667 317.931 72.5C314.431 67.6334 310.914 62.7167 307.381 57.75H311.381L329.781 83.55C332.814 79.25 335.814 74.9667 338.781 70.7001C341.781 66.4 344.781 62.0834 347.781 57.75H351.531L330.881 87.2501H328.481ZM346.281 54.95C343.514 58.95 340.764 62.9334 338.031 66.9C335.298 70.8667 332.514 74.8334 329.681 78.8L312.731 54.95H302.131L327.131 90.05H332.381L356.881 54.95H346.281ZM363.981 58.85L337.981 96.15H331.531L326.481 91.3L299.681 53.7001H314.381L318.331 58.85L330.281 75.8C331.314 74.3667 332.348 72.9 333.381 71.4C334.448 69.8667 335.581 68.2334 336.781 66.5C338.014 64.7334 339.348 62.8167 340.781 60.75C342.214 58.6501 343.831 56.3001 345.631 53.7001H359.231L363.981 58.85Z" fill="#0D1615"/>
<path d="M399.196 71V74H373.746V84.2001H404.396V87.2501H370.646V57.75H404.346V60.8H373.746V71H399.196ZM407.146 63.6001V54.95H367.846V90.05H407.196V81.4H376.496V76.75H401.946V68.25H376.496V63.6001H407.146ZM366.596 91.3V53.7001H408.396L413.246 58.85V69.7001H405.596L408.046 72.15V80.15L413.296 85.3V96.15H371.746L366.596 91.3Z" fill="#0D1615"/>
</svg>
